PathFileType	4	(X/Y/Z)	C:/Users/beibeiliu/ov580/test_trc/User1\sequence.34_training_dense_left.trc
DataRate	CameraRate	NumFrames	NumMarkers	Units	OrigDataRate	OrigDataStartFrame	OrigNumFrames
120	120	7	19	mm	120	88	234
Frame#	Time	ThumbCMC			ThumbMCP			ThumbIP			ThumbTip			IndexMCP			IndexPIP			IndexTip			MiddleMCP			MiddlePIP			MiddleTip			RingMCP			RingPIP			RingTip			PinkyMCP			PinkyPIP			PinkyTip			BackHand1			BackHand2			BackHand3	
		X0	Y0	Z0	X1	Y1	Z1	X2	Y2	Z2	X3	Y3	Z3	X4	Y4	Z4	X5	Y5	Z5	X6	Y6	Z6	X7	Y7	Z7	X8	Y8	Z8	X9	Y9	Z9	X10	Y10	Z10	X11	Y11	Z11	X12	Y12	Z12	X13	Y13	Z13	X14	Y14	Z14	X15	Y15	Z15	X16	Y16	Z16	X17	Y17	Z17	X18	Y18	Z18	
87	0.725	-138.878	3.35646	71.255	-103.717	-4.92366	63.865	-82.7121	-10.0149	50.0972	-56.7233	-12.7382	44.1536	-131.039	-10.412	-15.9017	-111.1	-22.0847	-35.3854	-82.6638	-38.856	-36.3135	-139.704	-31.514	-24.8587	-113.636	-43.6869	-41.386	-84.9569	-61.938	-35.0539	-140.273	-62.5569	-11.1944	-107.648	-72.7707	-5.54923	-98.3369	-72.2653	27.4201	-144.36	-78.8162	13.0887	-118.769	-79.2783	31.0766	-119.364	-60.0373	54.0419	-185.749	-42.1808	30.0187	-200.17	-35.6158	62.8378	-176.936	-5.47211	47.5549	
88	0.733333	-131.739	1.13509	71.2785	-101.252	-11.5508	64.6162	-73.9058	-14.0445	50.8748	-54.0181	-24.454	40.7065	-128.342	-7.85544	-11.7688	-105.86	-20.2527	-36.7887	-86.2252	-41.1969	-38.4867	-139.824	-30.3776	-26.6626	-114.721	-45.0318	-43.6054	-88.6192	-62.4805	-40.2551	-144.124	-58.7613	-11.6117	-113.352	-73.1077	-8.68958	-104.81	-76.6175	23.3087	-148.839	-75.8652	9.37307	-125.03	-79.5868	24.7364	-123.017	-63.786	51.8414	-183.979	-32.9037	31.167	-198.515	-29.2328	60.7561	-168.311	-1.39657	46.2533	
89	0.741667	-126.016	-3.89992	73.1101	-97.5834	-19.1627	64.583	-73.9346	-25.6109	50.4735	-53.5685	-33.8555	44.9166	-122.215	-5.32832	-10.7903	-103.733	-18.9619	-35.7691	-81.3931	-40.2452	-40.7269	-137.478	-23.6245	-26.3852	-113.787	-38.5809	-45.1383	-92.2535	-65.0532	-44.3212	-142.614	-51.5185	-15.0734	-117.45	-74.757	-11.1306	-109.852	-76.496	20.9896	-156.78	-72.9975	6.9265	-130.294	-79.4577	22.7392	-128.553	-58.9468	48.2984	-182.673	-28.184	29.9863	-196.77	-22.6386	61.2309	-162.474	2.99209	48.96	
90	0.75	-118.577	-8.25921	78.0563	-95.8303	-29.6806	63.5691	-68.7437	-36.7678	50.5986	-52.8457	-48.5771	38.3262	-118.003	-2.71804	-7.90067	-103.361	-14.0045	-34.0891	-83.7268	-42.2491	-42.0861	-135.367	-15.6328	-21.1381	-117.823	-31.902	-45.7283	-96.5386	-64.3169	-48.2257	-144.967	-42.7831	-15.6415	-122.279	-71.7146	-14.8593	-119.529	-78.9047	21.4803	-158.758	-68.9261	2.5117	-136.06	-76.6828	15.6756	-130.897	-61.436	42.4406	-175.124	-17.283	31.5978	-191.057	-16.1415	60.077	-154.247	7.48664	53.9425	
91	0.758333	-112.772	-13.8768	77.8872	-90.6471	-37.1916	64.64	-71.0052	-48.5319	49.975	-57.5671	-61.9177	36.6959	-107.199	-0.09334	-9.7203	-98.8213	-12.9098	-34.2938	-84.8248	-39.6472	-44.6654	-129.483	-8.08053	-19.763	-113.115	-28.4101	-48.7607	-101.173	-60.556	-53.5965	-143.276	-38.5983	-21.7963	-130.224	-67.7894	-20.3471	-127.345	-78.6003	11.7598	-164.282	-54.9966	-0.677395	-143.678	-75.5044	11.8554	-135.577	-63.2089	42.3474	-171.147	-8.80632	30.8333	-184.272	-5.83698	61.0073	-146.418	6.14308	54.1403	
92	0.766667	-109.493	-21.2394	78.0069	-93.7461	-45.439	61.3069	-72.3633	-57.795	42.0266	-63.6567	-72.5393	25.9744	-105.314	-1.27049	-5.29806	-94.9411	-11.3376	-35.9874	-88.5851	-36.7657	-48.0344	-129.023	-5.42148	-21.6652	-116.516	-23.6516	-49.068	-103.418	-57.2737	-58.3018	-146.78	-31.4746	-22.1233	-134.099	-63.7067	-24.6333	-129.602	-77.2417	2.73763	-167.127	-49.5771	-4.93388	-148.253	-71.0509	4.77129	-137.259	-61.9393	36.2115	-169.357	-5.16245	32.2355	-178.023	-1.77155	67.7424	-143.275	4.4448	58.9536	
93	0.775	-107.754	-27.0798	76.8497	-90.1625	-51.6062	55.7115	-77.5829	-64.4881	39.0914	-64.441	-80.8455	22.9784	-99.2097	-0.608378	-2.59079	-92.6577	-8.61305	-33.9843	-86.4675	-37.0743	-52.0583	-122.083	-3.18697	-23.1775	-114.778	-18.2976	-48.9907	-111.015	-52.6342	-61.6182	-146.454	-27.2114	-24.009	-137.856	-56.0818	-29.7978	-132.234	-75.7079	-0.836377	-165.343	-42.1644	-6.25698	-150.33	-67.0013	1.67181	-139.726	-62.4793	33.1407	-160.869	0.267092	35.2277	-169.874	-0.849564	68.353	-134.798	4.80907	60.8031	
